<svg width="49" height="76" viewBox="0 0 49 76" fill="none" xmlns="http://www.w3.org/2000/svg">
<path d="M25.3 67.3L25.4 67.4C25.4 67.35 25.4 67.325 25.4125 67.3125C25.425 67.3 25.45 67.3 25.5 67.3H25.3ZM23.4 67.4L23.5 67.3H23.3C23.35 67.3 23.375 67.3 23.3875 67.3125C23.4 67.325 23.4 67.35 23.4 67.4Z" fill="#D9C7B3" style="fill:#D9C7B3;fill:color(display-p3 0.8510 0.7804 0.7020);fill-opacity:1;"/>
<path fill-rule="evenodd" clip-rule="evenodd" d="M48.5 33V20.9C48.5 20.4 48.3 20 47.9 19.7C47.5 19.4 47.1 19.3 46.6 19.3C46.4 19.3 34.1 21.5 27.2 33.7L36.4 14.7L33.4 13.3L25.8 29V6.8C27 6.2 27.8 5 27.8 3.6C27.8 1.6 26.2 0 24.2 0C22.2 0 20.6 1.6 20.6 3.6C20.6 5 21.4 6.2 22.6 6.8V28.8L15.5 13.9C16.3 12.8 16.5 11.4 15.9 10.1C15 8.3 12.8 7.5 11 8.4C9.2 9.3 8.4 11.5 9.3 13.3C9.9 14.6 11.2 15.3 12.5 15.3L21.3 33.7C14.4 21.5 2.1 19.3 1.9 19.3C1.4 19.2 1 19.4 0.6 19.7C0.2 20 0 20.5 0 20.9V33C0 44.7 8.3 54.4 19.3 56.6C18.3 57.7 17.7 59.2 17.7 60.9C17.7 61.8 17.9 62.6 18.2 63.3C16.5 62.5 14.6 62.1 12.5 62.1C6.2 62.1 2.4 64.9 2.4 69.5C2.4 73 4.4 75 6.4 75.6C8.7 76.3 11.1 75.6 12.5 73.7C13 73 12.9 72 12.2 71.4C11.5 70.9 10.5 71 9.9 71.7C9.2 72.6 8.2 72.7 7.4 72.5C6.3 72.1 5.7 71 5.7 69.5C5.7 65.9 10 65.3 12.6 65.3C18.5 65.3 24 69.5 24 75.5C24 69.5 30 65.4 36 65.4C38.6 65.4 42.9 65.9 42.9 69.6C42.9 71.2 42.3 72.3 41.1 72.6C40.4 72.8 39.4 72.7 38.7 71.8C38.2 71.1 37.1 70.9 36.4 71.5C35.7 72 35.5 73 36.1 73.8C37.5 75.7 40 76.5 42.2 75.7C44.1 75.1 46.2 73.1 46.2 69.6C46.2 65 42.4 62.2 36.1 62.2C34 62.2 32.1 62.6 30.4 63.4C30.7 62.7 30.9 61.8 30.9 61C30.9 59.4 30.3 57.9 29.3 56.7C40.2 54.4 48.5 44.6 48.5 33ZM3.5 23V33C3.5 44 12.1 53 22.9 53.9C22.8 53.8 22.8 53.6 22.8 53.5V52.8C22.8 30.9 8.7 24.6 3.5 23ZM25.3 67.3L25.4 67.4C25.4 67.35 25.4 67.325 25.4125 67.3125C25.425 67.3 25.45 67.3 25.5 67.3H25.3ZM23.5 67.3H23.3C23.35 67.3 23.375 67.3 23.3875 67.3125C23.4 67.325 23.4 67.35 23.4 67.4L23.5 67.3ZM21.2 60.9C21.2 62.6 22.6 64.1 24.4 64.1C26.2 64.1 27.6 62.6 27.6 60.9C27.6 59.2 26.2 57.7 24.4 57.7C22.6 57.7 21.2 59.2 21.2 60.9ZM26 52.8V53.4C26 53.45 25.975 53.525 25.95 53.6C25.925 53.675 25.9 53.75 25.9 53.8C36.7 53 45.3 44 45.3 33.1V23C40.1 24.5 26 30.7 26 52.8Z" fill="#D9C7B3" style="fill:#D9C7B3;fill:color(display-p3 0.8510 0.7804 0.7020);fill-opacity:1;"/>
<path fill-rule="evenodd" clip-rule="evenodd" d="M25.4 67.4L25.3 67.3H25.5C25.45 67.3 25.425 67.3 25.4125 67.3125C25.4 67.325 25.4 67.35 25.4 67.4ZM23.3875 67.3125C23.375 67.3 23.35 67.3 23.3 67.3H23.5L23.4 67.4C23.4 67.35 23.4 67.325 23.3875 67.3125Z" fill="#D9C7B3" style="fill:#D9C7B3;fill:color(display-p3 0.8510 0.7804 0.7020);fill-opacity:1;"/>
<circle cx="12.5998" cy="11.5998" r="3.78" fill="#79C0CA" style="fill:#79C0CA;fill:color(display-p3 0.4733 0.7518 0.7913);fill-opacity:1;"/>
<circle cx="24.28" cy="3.78" r="3.78" fill="#79C0CA" style="fill:#79C0CA;fill:color(display-p3 0.4733 0.7518 0.7913);fill-opacity:1;"/>
<circle cx="36.28" cy="11.5998" r="3.78" fill="#79C0CA" style="fill:#79C0CA;fill:color(display-p3 0.4733 0.7518 0.7913);fill-opacity:1;"/>
</svg>
